<svg width="173" height="40" viewBox="0 0 173 40" fill="none" xmlns="http://www.w3.org/2000/svg">
<path fill-rule="evenodd" clip-rule="evenodd" d="M0.299841 30.0196L6.59666 30.1041C7.24218 25.4835 5.80133 14.9684 7.08652 11.6377C8.39928 12.2442 7.94909 12.1549 8.68513 13.6977C9.19618 14.7689 9.53507 15.4465 9.98588 16.3844C13.2038 23.0783 14.6414 30.4535 19.6128 30.5682C24.3413 30.6774 26.301 23.311 29.2861 16.8371C30.2288 14.7928 31.0784 12.3398 32.2127 11.6093C33.4475 13.5863 32.4273 25.5406 32.8711 29.958L39.3075 30.0659C39.6206 24.947 39.3383 19.1122 39.3621 14.0205C39.3856 8.98365 38.9713 4.28481 33.77 3.28599C27.6523 2.11115 25.2693 9.25436 22.6252 15.7728L20.7905 20.1126C20.0715 21.293 20.6253 20.6977 19.6497 21.3381C15.0713 17.041 14.8301 1.9059 5.90322 3.23578C0.717141 4.00825 0.157541 8.24396 0.162448 13.5724C0.166415 17.9035 -0.284812 26.1754 0.299841 30.0196Z" fill="#002F55"/>
<path fill-rule="evenodd" clip-rule="evenodd" d="M49.8262 10.6537L69.6494 10.6503L69.6502 3.7711C63.7464 3.85859 48.7805 3.02201 44.0289 4.26909C42.6171 6.50644 42.8707 7.28977 42.8892 10.425C42.92 15.6599 41.8913 27.887 44.1752 29.4822C45.6899 30.5401 66.7439 30.5501 69.567 29.899C70.163 20.2209 71.5388 23.9912 49.7758 23.1572L49.9194 19.5053L69.5732 19.4934L69.5572 14.293L49.7867 14.1493L49.8262 10.6537Z" fill="#002F55"/>
<path fill-rule="evenodd" clip-rule="evenodd" d="M79.6061 19.8675C79.5899 8.82347 78.7761 10.6476 83.3317 10.6425C87.5317 10.6379 95.0671 10.1597 94.8281 17.1081C94.5794 24.3366 85.3967 23.1355 79.6148 22.8649L79.6061 19.8675ZM101.354 18.5186C101.932 14.1744 100.776 10.7611 98.3061 7.92196C93.5975 2.50912 83.4935 3.38181 75.4934 3.67999C72.228 3.80172 72.6951 4.91402 72.7399 8.16772C72.7915 11.916 72.4369 27.9383 73.0348 29.1572C73.824 30.766 83.0489 30.1051 85.4999 30.1035C94.4873 30.0979 100.17 27.4156 101.354 18.5186Z" fill="#002F55"/>
<path fill-rule="evenodd" clip-rule="evenodd" d="M152.041 14.6088C151.7 12.234 151.292 10.8136 153.519 10.5981L171.8 10.7401L171.677 3.65241C143.803 4.52981 145.003 -0.683841 145.04 16.7205C145.049 20.825 144.777 25.9648 145.116 30.0442L151.848 30.1168L152.013 21.299L171.737 21.319L171.749 14.7221L152.041 14.6088Z" fill="#002F55"/>
<path fill-rule="evenodd" clip-rule="evenodd" d="M122.46 14.655C121.912 12.2916 121.78 10.7839 124.035 10.5907C128.059 10.246 138.26 11.2934 142.163 10.3874L141.911 4.09228L129.252 3.71341C126.712 3.7133 118.737 3.24756 117.066 4.50718C114.634 6.34007 115.534 13.5054 115.534 16.7204C115.534 21.1574 115.509 25.596 115.559 30.0711L122.179 30.0317L122.166 21.3069L141.989 21.4172L141.995 14.7118L122.46 14.655Z" fill="#002F55"/>
<path fill-rule="evenodd" clip-rule="evenodd" d="M0 39.8825L171.494 39.8109V33.9001L0 33.9387V39.8825Z" fill="#C4C6C8"/>
<path fill-rule="evenodd" clip-rule="evenodd" d="M104.851 30.0354L111.72 30.0923L111.72 27.9598L111.751 7.27813L111.58 3.69775L104.863 3.71216L104.851 30.0354Z" fill="#002F55"/>
<path fill-rule="evenodd" clip-rule="evenodd" d="M19.8407 16.4264L26.3898 0.0883269L12.7899 0L19.8407 16.4264Z" fill="#C4C6C8"/>
</svg>
